<svg version="1.1" xmlns="http://www.w3.org/2000/svg" xmlns:xlink="http://www.w3.org/1999/xlink" width="1200.000000pt" height="1200.000000pt" viewBox="0,0,256,256"><g fill="#ffffff" fill-rule="nonzero" stroke="none" stroke-width="1" stroke-linecap="butt" stroke-linejoin="miter" stroke-miterlimit="10" stroke-dasharray="" stroke-dashoffset="0" font-family="none" font-weight="none" font-size="none" text-anchor="none" style="mix-blend-mode: normal"><g transform="translate(-0.00478,0.00682) scale(0.21333,0.21333)"><g transform="translate(0,1200) scale(0.1,-0.1)"><path d="M5630,11989c-2128,-128 -4057,-1416 -5010,-3344c-748,-1514 -822,-3266 -204,-4832c813,-2061 2703,-3517 4894,-3772c2018,-235 4010,571 5316,2149c887,1073 1374,2423 1374,3810c0,2079 -1084,4008 -2873,5114c-1038,642 -2267,949 -3497,875zM5598,11131c2,-6 12,-11 23,-11c10,0 19,-7 19,-15c0,-8 9,-15 20,-15c31,0 89,-34 90,-52c0,-9 5,-18 10,-20c16,-5 23,-70 15,-142c-6,-64 -7,-66 -35,-66c-16,0 -30,7 -34,15c-3,8 -17,15 -31,15c-14,0 -25,6 -25,13c0,23 -39,46 -90,53c-27,4 -50,10 -50,15c0,5 -36,9 -80,9c-47,0 -80,-4 -80,-10c0,-5 -14,-10 -30,-10c-18,0 -37,-8 -47,-20c-10,-11 -25,-20 -35,-20c-10,0 -18,-6 -18,-13c0,-7 -8,-22 -19,-33c-10,-11 -22,-30 -25,-42c-4,-12 -14,-22 -22,-22c-8,0 -14,-10 -14,-24c0,-13 -4,-26 -9,-28c-20,-6 -32,-212 -21,-343c9,-122 20,-155 48,-155c6,0 13,-13 17,-30c4,-16 10,-30 15,-30c4,0 10,-9 13,-20c3,-13 14,-20 31,-20c19,0 27,-6 32,-25c8,-34 36,-40 174,-40c122,0 190,9 190,26c0,17 27,39 49,39c11,0 23,5 26,10c10,16 62,12 69,-6c3,-9 6,-51 6,-94c0,-57 -4,-83 -15,-94c-8,-8 -15,-19 -15,-25c0,-6 -5,-11 -11,-11c-6,0 -17,-6 -24,-14c-8,-7 -36,-17 -62,-21c-26,-4 -51,-12 -55,-18c-11,-18 -390,-17 -395,1c-3,6 -14,12 -25,12c-30,0 -98,22 -98,32c0,4 -9,8 -20,8c-11,0 -20,7 -20,15c0,9 -11,20 -25,25c-14,5 -25,14 -25,20c0,13 -32,45 -53,53c-9,3 -17,16 -17,27c0,11 -7,23 -15,26c-9,4 -15,19 -15,35c0,18 -5,29 -14,29c-38,0 -62,378 -36,565c15,107 20,125 36,125c9,0 14,11 14,30c0,17 5,30 11,30c5,0 15,14 20,30c6,17 17,30 24,30c7,0 15,13 18,29c5,22 16,34 47,47c24,11 40,25 40,35c0,12 18,22 65,35c36,10 65,24 65,31c0,7 9,13 20,13c11,0 20,4 20,9c0,15 61,19 225,16c101,-1 150,-6 153,-14zM6134,11093c9,-26 16,-57 16,-70c0,-14 6,-23 15,-23c9,0 15,-9 15,-25c0,-14 4,-25 9,-25c5,0 13,-25 16,-55c4,-30 11,-55 16,-55c5,0 9,-13 9,-30c0,-16 4,-30 9,-30c5,0 12,-27 16,-60c4,-39 12,-60 20,-60c13,0 25,-30 25,-67c0,-13 4,-23 9,-23c5,0 12,-22 16,-50c4,-27 11,-50 16,-50c5,0 9,-16 9,-35c0,-19 5,-35 10,-35c6,0 10,-11 10,-25c0,-14 5,-25 10,-25c6,0 10,-13 10,-30c0,-16 4,-30 8,-30c5,0 15,-36 22,-80c11,-66 17,-80 32,-80c10,0 18,-6 19,-12c2,-25 17,41 29,126c10,72 15,86 30,86c15,0 21,14 31,75c6,41 16,75 20,75c5,0 9,14 9,30c0,17 5,30 10,30c6,0 10,16 10,35c0,19 5,35 10,35c6,0 10,9 10,20c0,11 4,20 9,20c5,0 12,25 16,55c3,30 10,55 15,55c5,0 12,27 16,60c4,39 11,60 20,60c8,0 15,20 19,55c4,30 11,55 16,55c5,0 9,7 9,15c0,8 4,15 9,15c4,0 11,21 15,46c9,69 19,74 136,74c75,0 105,-4 116,-14c16,-17 19,-56 4,-56c-5,0 -10,-13 -10,-30c0,-16 -4,-30 -9,-30c-5,0 -15,-31 -21,-70c-10,-58 -15,-70 -31,-70c-11,0 -19,-7 -19,-16c0,-9 -10,-67 -21,-130c-19,-97 -25,-114 -40,-114c-11,0 -19,-7 -19,-17c0,-31 -24,-123 -32,-123c-5,0 -8,-13 -8,-30c0,-16 -4,-30 -10,-30c-5,0 -10,-11 -10,-25c0,-14 -4,-25 -9,-25c-4,0 -11,-19 -14,-42c-3,-24 -11,-44 -16,-46c-6,-2 -11,-17 -11,-33c0,-16 -4,-29 -9,-29c-5,0 -11,-22 -15,-50c-4,-32 -12,-50 -20,-50c-9,0 -16,-19 -21,-55c-3,-30 -10,-55 -15,-55c-4,0 -11,-25 -15,-55c-3,-30 -11,-55 -16,-55c-5,0 -9,-6 -9,-14c0,-8 -9,-18 -20,-21c-11,-3 -20,-11 -20,-16c0,-5 -62,-9 -144,-9c-119,0 -145,3 -150,15c-3,8 -12,15 -21,15c-10,0 -17,14 -21,40c-4,22 -10,40 -15,40c-5,0 -9,14 -9,30c0,17 -4,30 -9,30c-5,0 -13,25 -16,55c-4,30 -11,55 -16,55c-5,0 -9,9 -9,20c0,11 -6,20 -13,20c-12,0 -21,37 -44,178c-4,22 -11,32 -23,32c-17,0 -23,21 -47,158c-3,17 -9,32 -14,32c-5,0 -9,14 -9,30c0,20 -5,30 -15,30c-10,0 -16,16 -21,50c-4,28 -10,50 -14,50c-5,0 -11,23 -15,50c-4,28 -11,50 -16,50c-5,0 -9,14 -9,30c0,19 -5,30 -14,30c-9,0 -18,22 -26,67c-6,37 -15,70 -19,73c-5,3 -12,29 -16,58c-6,44 -4,52 9,52c9,0 16,5 16,10c0,6 45,10 114,10h114zM7870,9529c294,-45 559,-196 750,-426c129,-156 209,-323 249,-521c20,-95 20,-152 22,-3110l1,-3012h-2892h-2892l1,3542c0,1949 1,3543 1,3543c2895,0 4697,-6 4760,-16z"></path><path d="M5810,8797c-41,-13 -104,-38 -140,-57c-86,-46 -216,-174 -263,-260c-185,-338 -57,-756 285,-923c207,-102 409,-102 616,0c278,136 427,452 352,749c-33,130 -82,217 -180,314c-96,96 -179,146 -300,179c-105,30 -267,28 -370,-2z"></path><path d="M5305,7377c-250,-102 -435,-315 -501,-575c-24,-93 -24,-101 -24,-568v-474h1220h1220v474c0,467 0,475 -24,568c-67,265 -265,487 -519,583c-81,30 -104,31 -112,5c-11,-34 -148,-163 -216,-203c-35,-21 -100,-49 -144,-64c-69,-23 -97,-26 -205,-26c-108,0 -136,3 -205,26c-136,45 -258,130 -330,231c-25,35 -47,55 -60,55c-11,1 -56,-14 -100,-32z"></path><path d="M3830,4855v-215h2170h2170v215v215h-2170h-2170z"></path><path d="M3830,3395v-215h2170h2170v215v215h-2170h-2170z"></path></g></g></g></svg>