<?xml version="1.0" encoding="UTF-8"?>
<svg xmlns="http://www.w3.org/2000/svg" xmlns:xlink="http://www.w3.org/1999/xlink" width="100px" height="100px" viewBox="0 0 100 100" version="1.1">
<g id="surface1">
<path style=" stroke:none;fill-rule:nonzero;fill:rgb(91.372549%,23.921569%,50.980392%);fill-opacity:1;" d="M 46.914062 0.09375 C 29.179688 1.160156 13.105469 11.894531 5.164062 27.960938 C -1.070312 40.578125 -1.683594 55.175781 3.464844 68.226562 C 10.238281 85.402344 25.988281 97.535156 44.246094 99.660156 C 61.0625 101.617188 77.664062 94.902344 88.546875 81.75 C 95.9375 72.808594 99.996094 61.558594 99.996094 50 C 99.996094 32.675781 90.964844 16.601562 76.054688 7.386719 C 67.40625 2.035156 57.164062 -0.523438 46.914062 0.09375 Z M 46.648438 7.246094 C 46.664062 7.292969 46.746094 7.335938 46.839844 7.335938 C 46.921875 7.335938 46.996094 7.394531 46.996094 7.460938 C 46.996094 7.527344 47.074219 7.585938 47.164062 7.585938 C 47.421875 7.585938 47.90625 7.871094 47.914062 8.019531 C 47.914062 8.09375 47.957031 8.167969 47.996094 8.1875 C 48.128906 8.226562 48.1875 8.769531 48.121094 9.371094 C 48.074219 9.902344 48.0625 9.917969 47.832031 9.917969 C 47.699219 9.917969 47.582031 9.859375 47.546875 9.792969 C 47.523438 9.726562 47.40625 9.667969 47.289062 9.667969 C 47.171875 9.667969 47.082031 9.621094 47.082031 9.5625 C 47.082031 9.371094 46.753906 9.175781 46.332031 9.121094 C 46.105469 9.085938 45.914062 9.035156 45.914062 8.996094 C 45.914062 8.953125 45.613281 8.917969 45.246094 8.917969 C 44.855469 8.917969 44.582031 8.953125 44.582031 9.003906 C 44.582031 9.042969 44.464844 9.085938 44.332031 9.085938 C 44.179688 9.085938 44.023438 9.152344 43.9375 9.253906 C 43.855469 9.34375 43.730469 9.417969 43.648438 9.417969 C 43.5625 9.417969 43.496094 9.46875 43.496094 9.527344 C 43.496094 9.585938 43.429688 9.710938 43.339844 9.800781 C 43.253906 9.894531 43.15625 10.050781 43.128906 10.152344 C 43.097656 10.253906 43.015625 10.335938 42.949219 10.335938 C 42.878906 10.335938 42.832031 10.417969 42.832031 10.535156 C 42.832031 10.644531 42.796875 10.753906 42.753906 10.769531 C 42.589844 10.820312 42.488281 12.535156 42.582031 13.628906 C 42.65625 14.644531 42.746094 14.917969 42.980469 14.917969 C 43.03125 14.917969 43.089844 15.027344 43.121094 15.167969 C 43.15625 15.300781 43.207031 15.417969 43.246094 15.417969 C 43.28125 15.417969 43.332031 15.492188 43.355469 15.585938 C 43.378906 15.695312 43.472656 15.753906 43.613281 15.753906 C 43.773438 15.753906 43.839844 15.800781 43.878906 15.960938 C 43.949219 16.242188 44.179688 16.292969 45.332031 16.292969 C 46.347656 16.292969 46.914062 16.21875 46.914062 16.078125 C 46.914062 15.9375 47.140625 15.753906 47.324219 15.753906 C 47.414062 15.753906 47.515625 15.710938 47.539062 15.667969 C 47.621094 15.535156 48.054688 15.570312 48.113281 15.71875 C 48.140625 15.792969 48.164062 16.144531 48.164062 16.503906 C 48.164062 16.976562 48.128906 17.195312 48.039062 17.285156 C 47.972656 17.351562 47.914062 17.445312 47.914062 17.492188 C 47.914062 17.542969 47.871094 17.585938 47.824219 17.585938 C 47.773438 17.585938 47.679688 17.636719 47.621094 17.703125 C 47.554688 17.761719 47.324219 17.84375 47.105469 17.878906 C 46.890625 17.910156 46.679688 17.976562 46.648438 18.027344 C 46.554688 18.175781 43.398438 18.167969 43.355469 18.019531 C 43.332031 17.96875 43.238281 17.917969 43.148438 17.917969 C 42.898438 17.917969 42.332031 17.734375 42.332031 17.652344 C 42.332031 17.617188 42.253906 17.585938 42.164062 17.585938 C 42.074219 17.585938 41.996094 17.527344 41.996094 17.460938 C 41.996094 17.386719 41.90625 17.292969 41.789062 17.253906 C 41.671875 17.210938 41.582031 17.136719 41.582031 17.085938 C 41.582031 16.976562 41.3125 16.710938 41.140625 16.644531 C 41.0625 16.617188 40.996094 16.511719 40.996094 16.417969 C 40.996094 16.328125 40.9375 16.226562 40.871094 16.203125 C 40.796875 16.167969 40.746094 16.042969 40.746094 15.910156 C 40.746094 15.761719 40.707031 15.667969 40.628906 15.667969 C 40.3125 15.667969 40.113281 12.519531 40.332031 10.960938 C 40.457031 10.070312 40.496094 9.917969 40.628906 9.917969 C 40.707031 9.917969 40.746094 9.828125 40.746094 9.667969 C 40.746094 9.527344 40.789062 9.417969 40.839844 9.417969 C 40.878906 9.417969 40.964844 9.300781 41.003906 9.167969 C 41.054688 9.027344 41.148438 8.917969 41.207031 8.917969 C 41.265625 8.917969 41.332031 8.8125 41.355469 8.675781 C 41.398438 8.496094 41.488281 8.394531 41.746094 8.285156 C 41.949219 8.195312 42.082031 8.078125 42.082031 7.996094 C 42.082031 7.894531 42.230469 7.8125 42.621094 7.703125 C 42.921875 7.621094 43.164062 7.503906 43.164062 7.445312 C 43.164062 7.386719 43.238281 7.335938 43.332031 7.335938 C 43.421875 7.335938 43.496094 7.300781 43.496094 7.261719 C 43.496094 7.136719 44.003906 7.101562 45.371094 7.128906 C 46.214844 7.136719 46.621094 7.175781 46.648438 7.246094 Z M 51.113281 7.5625 C 51.1875 7.777344 51.246094 8.035156 51.246094 8.144531 C 51.246094 8.261719 51.296875 8.335938 51.371094 8.335938 C 51.449219 8.335938 51.496094 8.410156 51.496094 8.542969 C 51.496094 8.660156 51.53125 8.753906 51.574219 8.753906 C 51.613281 8.753906 51.679688 8.960938 51.707031 9.210938 C 51.738281 9.460938 51.796875 9.667969 51.839844 9.667969 C 51.878906 9.667969 51.914062 9.777344 51.914062 9.917969 C 51.914062 10.050781 51.949219 10.167969 51.988281 10.167969 C 52.03125 10.167969 52.089844 10.394531 52.121094 10.667969 C 52.15625 10.996094 52.222656 11.167969 52.289062 11.167969 C 52.398438 11.167969 52.496094 11.417969 52.496094 11.726562 C 52.496094 11.835938 52.53125 11.917969 52.574219 11.917969 C 52.613281 11.917969 52.671875 12.101562 52.707031 12.335938 C 52.738281 12.5625 52.796875 12.753906 52.839844 12.753906 C 52.878906 12.753906 52.914062 12.886719 52.914062 13.042969 C 52.914062 13.203125 52.957031 13.335938 52.996094 13.335938 C 53.046875 13.335938 53.082031 13.425781 53.082031 13.542969 C 53.082031 13.660156 53.121094 13.753906 53.164062 13.753906 C 53.214844 13.753906 53.246094 13.859375 53.246094 14.003906 C 53.246094 14.136719 53.28125 14.253906 53.3125 14.253906 C 53.355469 14.253906 53.4375 14.550781 53.496094 14.917969 C 53.589844 15.46875 53.640625 15.585938 53.765625 15.585938 C 53.847656 15.585938 53.914062 15.636719 53.921875 15.6875 C 53.9375 15.894531 54.0625 15.34375 54.164062 14.636719 C 54.246094 14.035156 54.289062 13.917969 54.414062 13.917969 C 54.539062 13.917969 54.589844 13.800781 54.671875 13.292969 C 54.722656 12.953125 54.804688 12.667969 54.839844 12.667969 C 54.878906 12.667969 54.914062 12.550781 54.914062 12.417969 C 54.914062 12.277344 54.957031 12.167969 54.996094 12.167969 C 55.046875 12.167969 55.082031 12.035156 55.082031 11.878906 C 55.082031 11.71875 55.121094 11.585938 55.164062 11.585938 C 55.214844 11.585938 55.246094 11.511719 55.246094 11.417969 C 55.246094 11.328125 55.28125 11.253906 55.324219 11.253906 C 55.363281 11.253906 55.421875 11.042969 55.457031 10.792969 C 55.480469 10.542969 55.539062 10.335938 55.582031 10.335938 C 55.621094 10.335938 55.679688 10.109375 55.714844 9.835938 C 55.746094 9.511719 55.804688 9.335938 55.878906 9.335938 C 55.945312 9.335938 56.003906 9.167969 56.039062 8.878906 C 56.070312 8.628906 56.128906 8.417969 56.171875 8.417969 C 56.214844 8.417969 56.246094 8.359375 56.246094 8.292969 C 56.246094 8.226562 56.28125 8.167969 56.320312 8.167969 C 56.355469 8.167969 56.414062 7.996094 56.445312 7.785156 C 56.523438 7.210938 56.605469 7.167969 57.582031 7.167969 C 58.207031 7.167969 58.457031 7.203125 58.546875 7.285156 C 58.679688 7.425781 58.707031 7.753906 58.582031 7.753906 C 58.539062 7.753906 58.496094 7.859375 58.496094 8.003906 C 58.496094 8.136719 58.464844 8.253906 58.421875 8.253906 C 58.378906 8.253906 58.296875 8.511719 58.246094 8.835938 C 58.164062 9.320312 58.121094 9.417969 57.988281 9.417969 C 57.898438 9.417969 57.832031 9.476562 57.832031 9.550781 C 57.832031 9.628906 57.746094 10.109375 57.65625 10.636719 C 57.496094 11.445312 57.445312 11.585938 57.320312 11.585938 C 57.230469 11.585938 57.164062 11.644531 57.164062 11.726562 C 57.164062 11.984375 56.964844 12.753906 56.898438 12.753906 C 56.855469 12.753906 56.832031 12.859375 56.832031 13.003906 C 56.832031 13.136719 56.796875 13.253906 56.746094 13.253906 C 56.707031 13.253906 56.664062 13.34375 56.664062 13.460938 C 56.664062 13.578125 56.628906 13.667969 56.589844 13.667969 C 56.554688 13.667969 56.496094 13.828125 56.472656 14.019531 C 56.445312 14.21875 56.378906 14.386719 56.339844 14.402344 C 56.289062 14.417969 56.246094 14.542969 56.246094 14.675781 C 56.246094 14.8125 56.214844 14.917969 56.171875 14.917969 C 56.128906 14.917969 56.082031 15.101562 56.046875 15.335938 C 56.015625 15.601562 55.945312 15.753906 55.878906 15.753906 C 55.804688 15.753906 55.746094 15.910156 55.707031 16.210938 C 55.679688 16.460938 55.621094 16.667969 55.582031 16.667969 C 55.546875 16.667969 55.488281 16.878906 55.457031 17.128906 C 55.429688 17.378906 55.363281 17.585938 55.324219 17.585938 C 55.28125 17.585938 55.246094 17.636719 55.246094 17.703125 C 55.246094 17.769531 55.171875 17.851562 55.082031 17.878906 C 54.988281 17.902344 54.914062 17.96875 54.914062 18.011719 C 54.914062 18.050781 54.398438 18.085938 53.714844 18.085938 C 52.722656 18.085938 52.503906 18.0625 52.464844 17.960938 C 52.4375 17.894531 52.363281 17.835938 52.289062 17.835938 C 52.207031 17.835938 52.148438 17.71875 52.113281 17.503906 C 52.082031 17.320312 52.03125 17.167969 51.988281 17.167969 C 51.949219 17.167969 51.914062 17.050781 51.914062 16.917969 C 51.914062 16.777344 51.878906 16.667969 51.839844 16.667969 C 51.796875 16.667969 51.730469 16.460938 51.707031 16.210938 C 51.671875 15.960938 51.613281 15.753906 51.574219 15.753906 C 51.53125 15.753906 51.496094 15.675781 51.496094 15.585938 C 51.496094 15.492188 51.449219 15.417969 51.390625 15.417969 C 51.289062 15.417969 51.214844 15.109375 51.023438 13.9375 C 50.988281 13.753906 50.929688 13.667969 50.832031 13.667969 C 50.6875 13.667969 50.640625 13.492188 50.4375 12.351562 C 50.414062 12.210938 50.363281 12.085938 50.324219 12.085938 C 50.28125 12.085938 50.246094 11.96875 50.246094 11.835938 C 50.246094 11.667969 50.207031 11.585938 50.121094 11.585938 C 50.039062 11.585938 49.988281 11.453125 49.949219 11.167969 C 49.914062 10.9375 49.863281 10.753906 49.832031 10.753906 C 49.789062 10.753906 49.738281 10.5625 49.707031 10.335938 C 49.671875 10.101562 49.613281 9.917969 49.574219 9.917969 C 49.53125 9.917969 49.496094 9.800781 49.496094 9.667969 C 49.496094 9.511719 49.457031 9.417969 49.378906 9.417969 C 49.304688 9.417969 49.230469 9.234375 49.164062 8.859375 C 49.113281 8.550781 49.039062 8.277344 49.003906 8.253906 C 48.964844 8.226562 48.90625 8.011719 48.871094 7.769531 C 48.824219 7.402344 48.839844 7.335938 48.949219 7.335938 C 49.023438 7.335938 49.082031 7.292969 49.082031 7.253906 C 49.082031 7.203125 49.457031 7.167969 50.03125 7.167969 L 50.980469 7.167969 Z M 65.582031 20.59375 C 68.03125 20.96875 70.238281 22.226562 71.832031 24.144531 C 72.90625 25.445312 73.570312 26.835938 73.90625 28.484375 C 74.070312 29.277344 74.070312 29.753906 74.089844 54.402344 L 74.097656 79.5 L 25.898438 79.5 L 25.90625 49.984375 C 25.90625 33.742188 25.914062 20.460938 25.914062 20.460938 C 50.039062 20.460938 65.054688 20.511719 65.582031 20.59375 Z M 65.582031 20.59375 "/>
<path style=" stroke:none;fill-rule:nonzero;fill:rgb(91.372549%,23.921569%,50.980392%);fill-opacity:1;" d="M 48.414062 26.695312 C 48.074219 26.800781 47.546875 27.011719 47.246094 27.167969 C 46.53125 27.550781 45.449219 28.617188 45.054688 29.335938 C 43.515625 32.152344 44.582031 35.636719 47.429688 37.027344 C 49.15625 37.878906 50.839844 37.878906 52.5625 37.027344 C 54.878906 35.894531 56.121094 33.261719 55.496094 30.785156 C 55.222656 29.703125 54.8125 28.976562 53.996094 28.167969 C 53.199219 27.367188 52.503906 26.953125 51.496094 26.675781 C 50.621094 26.425781 49.273438 26.445312 48.414062 26.695312 Z M 48.414062 26.695312 "/>
<path style=" stroke:none;fill-rule:nonzero;fill:rgb(91.372549%,23.921569%,50.980392%);fill-opacity:1;" d="M 44.207031 38.527344 C 42.121094 39.378906 40.582031 41.152344 40.03125 43.320312 C 39.832031 44.09375 39.832031 44.160156 39.832031 48.050781 L 39.832031 52 L 60.164062 52 L 60.164062 48.050781 C 60.164062 44.160156 60.164062 44.09375 59.964844 43.320312 C 59.40625 41.109375 57.753906 39.261719 55.640625 38.460938 C 54.964844 38.210938 54.773438 38.203125 54.707031 38.417969 C 54.613281 38.703125 53.472656 39.777344 52.90625 40.109375 C 52.613281 40.285156 52.074219 40.519531 51.707031 40.644531 C 51.128906 40.835938 50.898438 40.859375 49.996094 40.859375 C 49.097656 40.859375 48.863281 40.835938 48.289062 40.644531 C 47.15625 40.269531 46.140625 39.558594 45.539062 38.71875 C 45.332031 38.425781 45.148438 38.261719 45.039062 38.261719 C 44.949219 38.253906 44.574219 38.378906 44.207031 38.527344 Z M 44.207031 38.527344 "/>
<path style=" stroke:none;fill-rule:nonzero;fill:rgb(91.372549%,23.921569%,50.980392%);fill-opacity:1;" d="M 31.914062 59.542969 L 31.914062 61.335938 L 68.082031 61.335938 L 68.082031 57.75 L 31.914062 57.75 Z M 31.914062 59.542969 "/>
<path style=" stroke:none;fill-rule:nonzero;fill:rgb(91.372549%,23.921569%,50.980392%);fill-opacity:1;" d="M 31.914062 71.710938 L 31.914062 73.5 L 68.082031 73.5 L 68.082031 69.917969 L 31.914062 69.917969 Z M 31.914062 71.710938 "/>
</g>
</svg>
