<svg version="1.1" xmlns="http://www.w3.org/2000/svg" xmlns:xlink="http://www.w3.org/1999/xlink" width="512.000000pt" height="512.000000pt" viewBox="0,0,256,256"><g fill="#ffffff" fill-rule="nonzero" stroke="none" stroke-width="1" stroke-linecap="butt" stroke-linejoin="miter" stroke-miterlimit="10" stroke-dasharray="" stroke-dashoffset="0" font-family="none" font-weight="none" font-size="none" text-anchor="none" style="mix-blend-mode: normal"><g transform="translate(0,0)"><g><g transform="translate(0.08698,0.0279) scale(0.5,0.5)"><g transform="translate(0,512) scale(0.1,-0.1)"><path d="M2400,4794c-391,-36 -755,-163 -1064,-372c-1016,-685 -1317,-2074 -679,-3127c224,-370 558,-675 938,-860c251,-122 326,-137 379,-74l26,31v215v215l-27,-6c-16,-4 -84,-9 -153,-12c-204,-10 -337,34 -456,150c-55,55 -72,82 -128,200c-78,164 -133,238 -232,311c-41,31 -80,67 -87,82c-30,67 111,86 228,29c76,-38 154,-112 213,-204c146,-227 335,-296 585,-213l63,21l12,60c16,78 44,142 87,200l35,48l-47,7c-470,67 -758,267 -882,611c-59,162 -75,266 -75,489c0,190 1,204 27,289c35,113 85,214 147,294l48,64l-14,40c-43,122 -37,333 13,492l25,78l81,-4c126,-8 268,-63 442,-174l90,-57l55,12c225,50 272,55 510,55c238,0 291,-6 510,-55l55,-12l80,52c167,110 319,170 446,178l85,6l21,-69c34,-111 43,-168 43,-283c0,-75 -6,-132 -20,-185l-19,-77l39,-51c136,-172 200,-398 186,-658c-20,-348 -110,-577 -297,-755c-86,-81 -178,-138 -304,-188c-84,-33 -259,-77 -368,-92l-48,-6l32,-37c37,-42 70,-111 96,-197c15,-52 17,-112 19,-453c2,-270 6,-402 14,-422c27,-65 96,-69 235,-15c314,121 627,340 847,592c319,366 506,781 570,1263c16,123 16,449 0,565c-58,422 -207,792 -450,1119c-85,114 -249,287 -363,381c-303,254 -696,430 -1094,490c-100,15 -389,27 -475,19z"></path></g></g></g></g></g></svg>