<?xml version="1.0" encoding="UTF-8"?>
<svg xmlns="http://www.w3.org/2000/svg" xmlns:xlink="http://www.w3.org/1999/xlink" width="px" height="100px" viewBox="0 0 100 100" version="1.1">
<g id="surface1">
<path style=" stroke:none;fill-rule:nonzero;fill:rgb(91.372549%,18.823529%,50.980392%);fill-opacity:1;" d="M 46.910156 6.378906 C 39.273438 7.082031 32.164062 9.5625 26.128906 13.644531 C 6.285156 27.023438 0.40625 54.152344 12.867188 74.71875 C 17.242188 81.945312 23.765625 87.902344 31.1875 91.515625 C 36.089844 93.898438 37.554688 94.191406 38.589844 92.960938 L 39.097656 92.355469 L 39.097656 83.957031 L 38.570312 84.074219 C 38.257812 84.152344 36.929688 84.25 35.582031 84.308594 C 31.597656 84.503906 29 83.644531 26.675781 81.378906 C 25.601562 80.304688 25.269531 79.777344 24.175781 77.472656 C 22.652344 74.269531 21.578125 72.824219 19.644531 71.398438 C 18.84375 70.792969 18.082031 70.089844 17.945312 69.796875 C 17.359375 68.488281 20.113281 68.117188 22.398438 69.230469 C 23.882812 69.972656 25.40625 71.417969 26.558594 73.214844 C 29.410156 77.648438 33.101562 78.996094 37.984375 77.375 L 39.214844 76.964844 L 39.449219 75.792969 C 39.761719 74.269531 40.308594 73.019531 41.148438 71.886719 L 41.832031 70.949219 L 40.914062 70.8125 C 31.734375 69.503906 26.109375 65.597656 23.6875 58.878906 C 22.535156 55.714844 22.222656 53.683594 22.222656 49.328125 C 22.222656 45.617188 22.242188 45.34375 22.75 43.683594 C 23.433594 41.476562 24.410156 39.503906 25.621094 37.941406 L 26.558594 36.691406 L 26.285156 35.910156 C 25.445312 33.527344 25.5625 29.40625 26.539062 26.300781 L 27.027344 24.777344 L 28.609375 24.855469 C 31.070312 25.011719 33.84375 26.085938 37.242188 28.253906 L 39 29.367188 L 40.074219 29.132812 C 44.46875 28.15625 45.386719 28.058594 50.035156 28.058594 C 54.683594 28.058594 55.71875 28.175781 59.996094 29.132812 L 61.070312 29.367188 L 62.632812 28.351562 C 65.894531 26.203125 68.863281 25.03125 71.34375 24.875 L 73.003906 24.757812 L 73.414062 26.105469 C 74.078125 28.273438 74.253906 29.386719 74.253906 31.632812 C 74.253906 33.097656 74.136719 34.210938 73.863281 35.246094 L 73.492188 36.75 L 74.253906 37.746094 C 76.910156 41.105469 78.160156 45.519531 77.886719 50.597656 C 77.496094 57.394531 75.738281 61.867188 72.085938 65.34375 C 70.40625 66.925781 68.609375 68.039062 66.148438 69.015625 C 64.507812 69.660156 61.089844 70.519531 58.960938 70.8125 L 58.023438 70.929688 L 58.648438 71.652344 C 59.371094 72.472656 60.015625 73.820312 60.523438 75.5 C 60.816406 76.515625 60.855469 77.6875 60.894531 84.347656 C 60.933594 89.621094 61.011719 92.199219 61.167969 92.589844 C 61.695312 93.859375 63.042969 93.9375 65.757812 92.882812 C 71.890625 90.519531 78.003906 86.242188 82.300781 81.320312 C 88.53125 74.171875 92.183594 66.066406 93.433594 56.652344 C 93.746094 54.25 93.746094 47.882812 93.433594 45.617188 C 92.300781 37.375 89.390625 30.148438 84.644531 23.761719 C 82.984375 21.535156 79.78125 18.15625 77.554688 16.320312 C 71.636719 11.359375 63.960938 7.921875 56.1875 6.75 C 54.234375 6.457031 48.589844 6.222656 46.910156 6.378906 Z M 46.910156 6.378906 "/>
</g>
</svg>
