<svg version="1.1" xmlns="http://www.w3.org/2000/svg" xmlns:xlink="http://www.w3.org/1999/xlink" width="512.000000pt" height="512.000000pt" viewBox="0,0,256,256"><g fill="#e93082" fill-rule="nonzero" stroke="none" stroke-width="1" stroke-linecap="butt" stroke-linejoin="miter" stroke-miterlimit="10" stroke-dasharray="" stroke-dashoffset="0" font-family="none" font-weight="none" font-size="none" text-anchor="none" style="mix-blend-mode: normal"><g transform="translate(-1.91105,-1.90859) scale(0.5,0.5)"><g transform="translate(0,512) scale(0.1,-0.1)"><path d="M2317,4795c-760,-92 -1436,-573 -1771,-1259c-154,-315 -222,-588 -233,-941c-13,-402 62,-746 239,-1100c333,-666 967,-1124 1718,-1241c159,-25 490,-25 650,-1c1022,157 1790,925 1947,1947c24,160 24,491 -1,650c-76,491 -291,924 -629,1269c-379,387 -866,624 -1399,681c-129,13 -387,11 -521,-5zM1893,3728c120,-52 186,-204 142,-329c-35,-97 -113,-160 -223,-179c-195,-32 -346,84 -345,265c0,76 16,123 58,173c79,94 240,125 368,70zM3431,3026c164,-35 294,-136 368,-287c82,-168 90,-247 91,-852v-447l-262,2l-263,3l-5,490l-5,490l-27,58c-34,71 -79,113 -142,132c-63,19 -99,19 -165,-1c-65,-19 -132,-78 -169,-149l-27,-50l-3,-487l-3,-488h-259h-260v780v780h260h260v-106v-106l40,51c78,99 188,167 305,191c65,13 195,11 266,-4zM2018,2223l-3,-778l-262,-3l-263,-2v780v780h265h265z"></path></g></g></g></svg>