<?xml version="1.0" encoding="UTF-8"?>
<svg xmlns="http://www.w3.org/2000/svg" xmlns:xlink="http://www.w3.org/1999/xlink" width="px" height="100px" viewBox="0 0 100 100" version="1.1">
<g id="surface1">
<path style=" stroke:none;fill-rule:nonzero;fill:rgb(99.607843%,96.862745%,97.647059%);fill-opacity:1;" d="M 44.507812 5.601562 C 29.664062 7.398438 16.460938 16.792969 9.917969 30.191406 C 6.910156 36.34375 5.582031 41.675781 5.367188 48.570312 C 5.113281 56.421875 6.578125 63.140625 10.035156 70.054688 C 16.539062 83.0625 28.921875 92.007812 43.589844 94.292969 C 46.695312 94.78125 53.160156 94.78125 56.285156 94.3125 C 76.246094 91.246094 91.246094 76.246094 94.3125 56.285156 C 94.78125 53.160156 94.78125 46.695312 94.292969 43.589844 C 92.808594 34 88.609375 25.542969 82.007812 18.804688 C 74.605469 11.246094 65.09375 6.617188 54.683594 5.503906 C 52.164062 5.25 47.125 5.289062 44.507812 5.601562 Z M 36.226562 26.441406 C 38.570312 27.457031 39.859375 30.425781 39 32.867188 C 38.316406 34.761719 36.792969 35.992188 34.644531 36.363281 C 30.835938 36.988281 27.886719 34.722656 27.90625 31.1875 C 27.90625 29.703125 28.21875 28.785156 29.039062 27.808594 C 30.582031 25.972656 33.726562 25.367188 36.226562 26.441406 Z M 66.265625 40.152344 C 69.46875 40.835938 72.007812 42.808594 73.453125 45.757812 C 75.054688 49.039062 75.210938 50.582031 75.230469 62.398438 L 75.230469 71.128906 L 70.113281 71.089844 L 64.976562 71.03125 L 64.78125 51.890625 L 64.253906 50.757812 C 63.589844 49.371094 62.710938 48.550781 61.480469 48.179688 C 60.25 47.808594 59.546875 47.808594 58.257812 48.199219 C 56.988281 48.570312 55.679688 49.722656 54.957031 51.109375 L 54.429688 52.085938 L 54.371094 61.597656 L 54.3125 71.128906 L 44.175781 71.128906 L 44.175781 40.660156 L 54.332031 40.660156 L 54.332031 44.800781 L 55.113281 43.804688 C 56.636719 41.871094 58.785156 40.542969 61.070312 40.074219 C 62.339844 39.820312 64.878906 39.859375 66.265625 40.152344 Z M 38.667969 55.835938 L 38.609375 71.03125 L 33.492188 71.089844 L 28.355469 71.128906 L 28.355469 40.660156 L 38.707031 40.660156 Z M 38.667969 55.835938 "/>
</g>
</svg>
