<svg version="1.1" xmlns="http://www.w3.org/2000/svg" xmlns:xlink="http://www.w3.org/1999/xlink" width="1000.000000pt" height="1000.000000pt" viewBox="0,0,256,256"><g fill="#ffffff" fill-rule="nonzero" stroke="none" stroke-width="1" stroke-linecap="butt" stroke-linejoin="miter" stroke-miterlimit="10" stroke-dasharray="" stroke-dashoffset="0" font-family="none" font-weight="none" font-size="none" text-anchor="none" style="mix-blend-mode: normal"><g transform="translate(0,-0.05016) scale(0.256,0.256)"><g transform="translate(0,1000) scale(0.1,-0.1)"><path d="M4884,9217c-178,-132 -955,-711 -1478,-1102c-969,-725 -2089,-1560 -2578,-1924l-277,-206l-1,-2642v-2643h4450h4450l-2,2642l-3,2643l-140,105c-78,58 -289,216 -470,351c-420,313 -1205,899 -1720,1284c-220,164 -548,409 -730,545c-181,136 -563,421 -849,634c-285,213 -524,390 -530,392c-6,2 -61,-33 -122,-79zM5224,7660c585,-44 985,-362 1108,-885c32,-134 32,-383 -1,-513c-49,-198 -125,-344 -263,-504c-176,-205 -421,-319 -682,-318c-157,1 -231,33 -273,120c-19,36 -22,38 -34,23c-29,-35 -137,-95 -216,-120c-75,-23 -95,-25 -196,-21c-128,6 -196,27 -288,89c-172,116 -259,301 -259,548c0,296 124,590 333,788c135,127 254,179 432,190c174,10 284,-26 381,-124l51,-52l19,72l19,72h200c194,0 200,-1 199,-20c-1,-11 -15,-85 -32,-165c-72,-335 -94,-439 -107,-505c-8,-38 -32,-155 -55,-259c-41,-194 -49,-283 -28,-304c50,-50 254,78 368,233c191,258 229,614 94,889c-67,138 -197,275 -338,355c-220,125 -578,164 -894,96c-154,-33 -242,-66 -368,-140c-280,-165 -476,-482 -529,-858c-48,-334 24,-633 206,-862c152,-191 345,-296 669,-366c93,-20 134,-22 355,-22c233,-1 259,1 376,26c257,54 441,148 582,296l58,61h166h165l-37,-67c-148,-269 -429,-468 -785,-556c-314,-78 -759,-74 -1070,9c-543,145 -854,470 -963,1009c-31,156 -31,421 1,585c89,460 347,832 710,1023c168,88 368,150 542,167c212,22 219,22 384,10zM1295,5595c231,-155 688,-461 1015,-680c327,-220 829,-556 1115,-748c286,-192 566,-379 622,-415c57,-37 102,-72 100,-78c-1,-7 -85,-76 -187,-155c-523,-404 -719,-556 -862,-667c-307,-238 -475,-368 -687,-532c-242,-186 -581,-449 -686,-530c-151,-116 -293,-226 -355,-275c-168,-133 -509,-395 -514,-395c-3,0 -6,1074 -6,2386c0,1905 3,2384 13,2378c6,-4 201,-134 432,-289zM9150,3505c0,-1312 -2,-2385 -5,-2385c-6,0 -76,54 -710,545c-198,154 -457,354 -575,445c-118,91 -307,238 -420,325c-113,87 -302,234 -420,325c-118,92 -375,290 -570,441c-195,151 -409,317 -475,368c-66,51 -121,98 -122,104c-2,7 194,143 435,304c240,160 678,453 972,650c294,197 830,556 1190,797c360,241 662,445 670,452c8,8 18,14 22,14c4,0 8,-1073 8,-2385zM5092,3913c47,-38 211,-165 364,-283c153,-118 328,-254 389,-301c60,-47 252,-195 425,-329c333,-257 369,-285 630,-488c91,-70 244,-189 340,-263c96,-74 267,-207 380,-294c510,-395 1167,-904 1219,-943c31,-24 58,-47 59,-52c2,-6 -1435,-10 -3897,-10c-2239,0 -3901,4 -3901,9c0,5 26,28 57,52c58,43 368,283 833,643c135,104 295,228 355,275c235,181 327,253 525,406c113,87 232,179 265,205c33,26 152,118 265,205c113,88 300,232 415,321c116,90 302,234 415,321c113,87 286,221 385,298c99,76 225,174 280,217c55,43 102,78 105,78c3,0 44,-30 92,-67z"></path><path d="M4878,6766c-106,-38 -201,-127 -256,-240c-18,-38 -48,-121 -65,-185c-28,-104 -32,-130 -32,-256c0,-134 1,-143 29,-203c51,-110 134,-159 253,-150c192,14 341,213 404,541c24,127 22,249 -6,328c-47,135 -198,211 -327,165z"></path></g></g></g></svg>