<?xml version="1.0" encoding="UTF-8"?>
<svg xmlns="http://www.w3.org/2000/svg" xmlns:xlink="http://www.w3.org/1999/xlink" width="px" height="100px" viewBox="0 0 100 100" version="1.1">
<g id="surface1">
<path style=" stroke:none;fill-rule:nonzero;fill:rgb(91.372549%,18.823529%,50.980392%);fill-opacity:1;" d="M 48.839844 7.808594 C 47.058594 9.128906 39.289062 14.921875 34.058594 18.832031 C 24.371094 26.082031 13.171875 34.429688 8.28125 38.070312 L 5.511719 40.128906 L 5.5 66.550781 L 5.5 92.980469 L 94.5 92.980469 L 94.480469 66.558594 L 94.449219 40.128906 L 93.050781 39.082031 C 92.269531 38.5 90.160156 36.921875 88.351562 35.570312 C 84.148438 32.441406 76.300781 26.582031 71.148438 22.730469 C 68.949219 21.089844 65.671875 18.640625 63.851562 17.28125 C 62.039062 15.921875 58.21875 13.070312 55.359375 10.941406 C 52.511719 8.808594 50.121094 7.039062 50.058594 7.019531 C 50 7 49.449219 7.351562 48.839844 7.808594 Z M 52.238281 23.378906 C 58.089844 23.820312 62.089844 27 63.320312 32.230469 C 63.640625 33.570312 63.640625 36.058594 63.308594 37.359375 C 62.820312 39.339844 62.058594 40.800781 60.679688 42.402344 C 58.921875 44.449219 56.46875 45.589844 53.859375 45.582031 C 52.289062 45.570312 51.550781 45.25 51.128906 44.378906 C 50.941406 44.019531 50.910156 44 50.789062 44.152344 C 50.5 44.5 49.421875 45.101562 48.628906 45.351562 C 47.878906 45.582031 47.679688 45.601562 46.671875 45.558594 C 45.390625 45.5 44.710938 45.289062 43.789062 44.671875 C 42.070312 43.511719 41.199219 41.660156 41.199219 39.191406 C 41.199219 36.230469 42.441406 33.289062 44.53125 31.308594 C 45.878906 30.039062 47.070312 29.519531 48.851562 29.410156 C 50.589844 29.308594 51.691406 29.671875 52.660156 30.652344 L 53.171875 31.171875 L 53.359375 30.449219 L 53.550781 29.730469 L 55.550781 29.730469 C 57.488281 29.730469 57.550781 29.742188 57.539062 29.929688 C 57.53125 30.039062 57.390625 30.78125 57.21875 31.582031 C 56.5 34.929688 56.28125 35.96875 56.148438 36.628906 C 56.070312 37.011719 55.828125 38.179688 55.601562 39.21875 C 55.191406 41.160156 55.109375 42.050781 55.320312 42.261719 C 55.820312 42.761719 57.859375 41.480469 59 39.929688 C 60.910156 37.351562 61.289062 33.789062 59.941406 31.039062 C 59.269531 29.660156 57.96875 28.289062 56.558594 27.492188 C 54.359375 26.242188 50.78125 25.851562 47.621094 26.53125 C 46.078125 26.859375 45.199219 27.191406 43.941406 27.929688 C 41.140625 29.582031 39.179688 32.75 38.648438 36.511719 C 38.171875 39.851562 38.890625 42.839844 40.710938 45.128906 C 42.230469 47.039062 44.160156 48.089844 47.398438 48.789062 C 48.328125 48.992188 48.738281 49.011719 50.949219 49.011719 C 53.28125 49.019531 53.539062 49 54.710938 48.75 C 57.28125 48.210938 59.121094 47.269531 60.53125 45.789062 L 61.109375 45.179688 L 64.421875 45.179688 L 64.050781 45.851562 C 62.570312 48.539062 59.761719 50.53125 56.199219 51.410156 C 53.058594 52.191406 48.609375 52.152344 45.5 51.320312 C 40.070312 49.871094 36.960938 46.621094 35.871094 41.230469 C 35.558594 39.671875 35.558594 37.019531 35.878906 35.378906 C 36.769531 30.78125 39.351562 27.058594 42.980469 25.152344 C 44.660156 24.269531 46.660156 23.652344 48.398438 23.480469 C 50.519531 23.261719 50.589844 23.261719 52.238281 23.378906 Z M 12.949219 44.03125 C 15.261719 45.582031 19.828125 48.640625 23.101562 50.832031 C 26.371094 53.03125 31.390625 56.390625 34.25 58.308594 C 37.109375 60.230469 39.910156 62.101562 40.46875 62.460938 C 41.039062 62.832031 41.488281 63.179688 41.46875 63.242188 C 41.460938 63.308594 40.621094 64 39.601562 64.789062 C 34.371094 68.832031 32.410156 70.351562 30.980469 71.460938 C 27.910156 73.839844 26.230469 75.140625 24.109375 76.78125 C 21.691406 78.640625 18.300781 81.269531 17.25 82.082031 C 15.738281 83.242188 14.320312 84.339844 13.699219 84.832031 C 12.019531 86.160156 8.609375 88.78125 8.558594 88.78125 C 8.53125 88.78125 8.5 78.039062 8.5 64.921875 C 8.5 45.871094 8.53125 41.082031 8.628906 41.140625 C 8.691406 41.179688 10.640625 42.480469 12.949219 44.03125 Z M 91.5 64.929688 C 91.5 78.050781 91.480469 88.78125 91.449219 88.78125 C 91.390625 88.78125 90.691406 88.242188 84.351562 83.332031 C 82.371094 81.789062 79.78125 79.789062 78.601562 78.878906 C 77.421875 77.96875 75.53125 76.5 74.398438 75.628906 C 73.269531 74.761719 71.378906 73.289062 70.199219 72.378906 C 69.019531 71.460938 66.449219 69.480469 64.5 67.96875 C 62.550781 66.460938 60.410156 64.800781 59.75 64.289062 C 59.089844 63.78125 58.539062 63.308594 58.53125 63.25 C 58.511719 63.179688 60.46875 61.820312 62.878906 60.210938 C 65.28125 58.609375 69.660156 55.679688 72.601562 53.710938 C 75.539062 51.742188 80.898438 48.152344 84.5 45.742188 C 88.101562 43.332031 91.121094 41.289062 91.199219 41.21875 C 91.28125 41.140625 91.378906 41.082031 91.421875 41.082031 C 91.460938 41.082031 91.5 51.808594 91.5 64.929688 Z M 50.921875 60.851562 C 51.390625 61.230469 53.03125 62.5 54.558594 63.679688 C 56.089844 64.859375 57.839844 66.21875 58.449219 66.691406 C 59.050781 67.160156 60.96875 68.640625 62.699219 69.980469 C 66.03125 72.550781 66.390625 72.832031 69 74.859375 C 69.910156 75.558594 71.441406 76.75 72.398438 77.492188 C 73.359375 78.230469 75.070312 79.558594 76.199219 80.429688 C 81.300781 84.378906 87.871094 89.46875 88.390625 89.859375 C 88.699219 90.101562 88.96875 90.332031 88.980469 90.378906 C 89 90.441406 74.628906 90.480469 50.011719 90.480469 C 27.621094 90.480469 11 90.441406 11 90.390625 C 11 90.339844 11.261719 90.109375 11.570312 89.871094 C 12.148438 89.441406 15.25 87.039062 19.898438 83.441406 C 21.25 82.402344 22.851562 81.160156 23.449219 80.691406 C 25.800781 78.878906 26.71875 78.160156 28.699219 76.628906 C 29.828125 75.761719 31.019531 74.839844 31.351562 74.582031 C 31.679688 74.320312 32.871094 73.402344 34 72.53125 C 35.128906 71.652344 37 70.210938 38.148438 69.320312 C 39.308594 68.421875 41.171875 66.980469 42.300781 66.109375 C 43.429688 65.242188 45.160156 63.902344 46.148438 63.128906 C 47.140625 62.371094 48.398438 61.390625 48.949219 60.960938 C 49.5 60.53125 49.96875 60.179688 50 60.179688 C 50.03125 60.179688 50.441406 60.480469 50.921875 60.851562 Z M 50.921875 60.851562 "/>
<path style=" stroke:none;fill-rule:nonzero;fill:rgb(91.372549%,18.823529%,50.980392%);fill-opacity:1;" d="M 48.78125 32.320312 C 47.71875 32.699219 46.769531 33.589844 46.21875 34.71875 C 46.039062 35.101562 45.738281 35.929688 45.570312 36.570312 C 45.289062 37.609375 45.25 37.871094 45.25 39.128906 C 45.25 40.46875 45.261719 40.558594 45.539062 41.160156 C 46.050781 42.261719 46.878906 42.75 48.070312 42.660156 C 49.988281 42.519531 51.480469 40.53125 52.109375 37.25 C 52.351562 35.980469 52.328125 34.761719 52.050781 33.96875 C 51.578125 32.621094 50.070312 31.859375 48.78125 32.320312 Z M 48.78125 32.320312 "/>
</g>
</svg>
